<?xml version="1.0" encoding="utf-8"?>
<!-- Generator: Adobe Illustrator 23.0.0, SVG Export Plug-In . SVG Version: 6.00 Build 0)  -->
<svg version="1.1" id="Layer_1" xmlns="http://www.w3.org/2000/svg" xmlns:xlink="http://www.w3.org/1999/xlink" x="0px" y="0px"
	 viewBox="0 0 490.2 346.2" style="enable-background:new 0 0 490.2 346.2;" xml:space="preserve">
<style type="text/css">
	.st0{fill:#555555;}
</style>
<path class="st0" d="M60.9,0h365.5c36,0,63.7,27.7,63.7,63.7v218.8c0,36-27.7,63.7-63.7,63.7H60.9C27.7,346.2,0,318.5,0,282.5V63.7
	C0,27.7,27.7,0,60.9,0z M27.7,296.3l96.9-96.9c11.1-11.1,30.5,8.3,19.4,19.4l-96.9,96.9c5.5,2.8,8.3,2.8,13.8,2.8h365.5
	c5.5,0,11.1,0,13.8-2.8l-94.2-96.9c-13.8-11.1,5.5-30.5,19.4-19.4l94.2,96.9c0-2.8,2.8-8.3,2.8-13.8V63.7L296.3,202.2
	c-30.5,24.9-74.8,22.2-102.5,0L27.7,63.7v218.8C27.7,288,27.7,293.5,27.7,296.3z M38.8,36l171.7,144c19.4,13.8,47.1,13.8,66.5,0
	L451.4,36c-8.3-5.5-16.6-8.3-24.9-8.3H60.9C52.6,27.7,44.3,30.5,38.8,36z"/>
</svg>
