<?xml version="1.0" encoding="utf-8"?>
<!-- Generator: Adobe Illustrator 24.0.0, SVG Export Plug-In . SVG Version: 6.00 Build 0)  -->
<svg version="1.1" id="Layer_1" xmlns="http://www.w3.org/2000/svg" xmlns:xlink="http://www.w3.org/1999/xlink" x="0px" y="0px"
	 viewBox="0 0 363.8 44.6" style="enable-background:new 0 0 363.8 44.6;" xml:space="preserve">
<style type="text/css">
	.st0{fill:#333333;}
</style>
<g>
	<path class="st0" d="M53.9,29.4c-0.3,0-0.6,0.1-0.9,0.1s-0.6,0-0.9,0c-0.9,0-1.7-0.1-2.5-0.4c-3.5,3.2-7.2,4.8-11.3,4.8
		c-1.4,0-2.4-0.4-3.2-1.1c-0.7-0.7-1-1.6-1-2.6c0-1.6,0.6-2.9,1.9-4.1c0.1-0.1,0.3-0.2,0.4-0.2c0.1,0,0.2,0.1,0.2,0.2
		c0,0.2-0.1,0.3-0.3,0.5c-0.9,0.8-1.4,1.9-1.4,3.1c0,0.8,0.3,1.6,0.8,2.1c0.6,0.7,1.5,1,2.6,1c2.8,0,5.8-1.6,9.1-4.8
		c-0.3-0.2-0.5-0.4-0.7-0.7s-0.4-0.5-0.7-0.7c-1.4,1.7-2.7,3.1-3.9,4.2L42,30.9c-0.1,0-0.2-0.1-0.2-0.2s0-0.1,0.1-0.1
		c0.6-0.5,1.2-1.1,1.8-1.8c0.6-0.7,1.3-1.5,2.1-2.4c-1.9-2.6-2.9-6-2.9-10.2c0-1.1,0.1-2.2,0.3-3.2c0.4-2.6,1.2-4.9,2.4-6.8
		c-0.4,0-0.8,0-1.2,0s-0.8,0-1.2,0c-7.6,0-11.5,1.6-11.8,4.8c-0.1,1.7,0.8,3.2,2.9,4.5c1.6,1,3.2,1.6,4.6,1.7c0.2,0,0.6,0,1.1-0.1
		s0.8-0.1,1.1-0.1c0.1,0,0.2,0,0.2,0.1c0,0.2-0.2,0.4-0.6,0.5c-0.5,0.2-1.2,0.4-1.9,0.4s-1.4-0.1-2.1-0.3c-1.8-0.6-3.2-1.3-4.4-2.5
		c-1.4-1.3-2-2.7-1.9-4.3c0.4-4.5,4.5-6.8,12.3-6.8c1.3,0,2.7,0.1,4.1,0.2c1.6-1.8,3.3-2.7,5.1-2.7c1.1,0,2,0.4,2.8,1.1
		s1.3,1.7,1.5,3c0.7,0.1,1.4,0.3,2.1,0.5s1.6,0.4,2.4,0.6c0.7-1.3,1.5-2.2,2.3-2.9s1.7-1,2.7-1c0.4,0,0.7,0.1,0.9,0.3
		C66.8,3.3,67,3.7,67,4c0,0.4-0.1,0.6-0.3,0.6c-0.1,0-0.1-0.1-0.1-0.3c0.1-0.7-0.2-1-0.7-1c-0.6,0-1.3,0.5-2,1.4
		c-0.2,0.3-0.5,0.6-0.8,1s-0.5,0.8-0.8,1.4c1.1,0.3,2.2,0.6,3.3,0.7s2.1,0.3,3.1,0.3c2.3,0,3.6-0.3,3.9-1c0.1,0,0.1-0.1,0.2-0.1
		c0.2,0,0.3,0.1,0.3,0.3c0,0.5-0.5,1-1.5,1.4c-0.9,0.4-1.6,0.5-2.2,0.5c-1.2,0-2.4-0.2-3.7-0.3c-1.3-0.1-2.5-0.5-3.8-0.8
		c-0.6,1.3-1.2,2.5-1.7,3.7s-1.1,2.5-1.7,3.7c-1,2.1-2,3.9-2.9,5.5s-1.8,2.9-2.6,4.1c-0.5,0.7-1,1.4-1.5,2s-1,1.2-1.6,1.7
		c1.2,0.3,2.4,0.4,3.8,0.1c0.3-0.1,0.6-0.1,0.9-0.2s0.6-0.2,0.9-0.4s0.5-0.3,0.7-0.5s0.4-0.3,0.5-0.5c0-0.1,0.1-0.1,0.2-0.1
		c0.1,0,0.2,0.1,0.2,0.2c0,0.3-0.5,0.7-1.4,1.2C55,29.1,54.3,29.3,53.9,29.4z M46.2,25.8c4.7-5.8,7.8-11.1,9.1-16
		c0.1-0.5,0.2-1,0.3-1.5s0.1-0.9,0.1-1.3c-0.8-0.1-1.5-0.2-2-0.3c-1.5-0.2-4-0.4-7.4-0.6c-1.1,1.9-1.9,4.1-2.3,6.7
		c-0.2,1.1-0.3,2.2-0.3,3.5C43.7,20.2,44.5,23.4,46.2,25.8z M56.4,7.1c0,0.4-0.1,0.9-0.1,1.4s-0.2,1-0.3,1.5
		c-1.3,4.6-4.5,10.1-9.6,16.3c0.4,0.6,0.9,1.1,1.4,1.4c0.5-0.5,0.9-1,1.4-1.5s0.9-1.1,1.4-1.7c1.5-1.9,3.1-4.3,4.7-7
		c1.6-2.7,3.3-6,5.1-9.6c-0.5-0.1-1-0.2-1.7-0.3S57.3,7.3,56.4,7.1z M55.7,5.6c-0.2-1.2-0.6-2.1-1.3-2.7S53,2,52,2
		c-1.5,0-3,0.8-4.4,2.4c1.2,0.1,2.5,0.3,3.9,0.5S54.2,5.3,55.7,5.6z"/>
	<path class="st0" d="M72.3,24.7c-2.1,2.2-3.9,3.3-5.2,3.3c-0.6,0-1-0.5-1.3-1.4c-0.1-0.4-0.2-0.7-0.3-1.1s-0.2-0.7-0.3-1.1
		c-0.2-0.5-0.5-0.8-0.9-0.8s-0.8,0.2-1.2,0.6c-0.6,0.4-1.2,1.2-2,2.2c-0.2,0.2-0.3,0.5-0.5,0.7s-0.3,0.5-0.5,0.7
		c-0.4,0.2-0.7,0.4-0.9,0.4c-0.5,0-0.7-0.4-0.7-1.1c0-0.3,0-0.6,0.1-1c0.3-0.9,0.7-2,1.2-3.2s1.1-2.7,1.8-4.3c1.8-4,3.3-6.9,4.5-8.8
		c1-1.5,2.1-2.2,3.2-2.2c0.9,0,1.3,0.5,1.3,1.5c0,0.4-0.1,0.9-0.3,1.5c-0.9,2.9-3.6,6.2-8,10c-0.9,1.7-1.7,3.6-2.2,5.7l0.6-0.6
		c0.2-0.2,0.5-0.5,0.9-0.9s0.8-0.8,1.3-1.3c1.2-1.1,2.3-1.7,3.1-1.7c0.5,0,0.8,0.4,0.9,1.3c0,0.4,0.1,0.8,0.1,1.2s0.1,0.8,0.1,1.2
		c0.1,0.8,0.5,1.3,1,1.3s1.2-0.3,2.1-0.9c0.6-0.4,1.2-0.9,1.7-1.5c0.2-0.2,0.3-0.3,0.5-0.3c0.1,0,0.2,0.1,0.2,0.2
		C72.5,24.4,72.4,24.5,72.3,24.7z M69.4,10.5c0.2-0.6,0.4-1,0.4-1.5s-0.2-0.7-0.5-0.7c-0.5,0-1.2,0.6-1.9,1.8
		c-0.9,1.5-1.7,3.1-2.5,4.7s-1.5,3.2-2.2,4.9c0.6-0.6,1.3-1.3,1.9-2s1.2-1.5,1.9-2.3c0.7-0.9,1.3-1.8,1.8-2.6S69.1,11.1,69.4,10.5z"
		/>
	<path class="st0" d="M77.2,18.9L77.1,19c0.7,0.2,1.3,0.7,1.8,1.3s0.7,1.3,0.7,2c0,1.3-0.3,2.5-1,3.6L78.5,26
		c1.9-0.1,3.4-0.7,4.6-1.9c0.1-0.1,0.2-0.2,0.3-0.2s0.2,0.1,0.2,0.2c0,0.2-0.1,0.4-0.3,0.5c-1.5,1.3-3.2,1.9-5.2,1.9
		c-0.5,0.7-1.2,1.2-1.9,1.7c-0.7,0.5-1.4,0.6-2.1,0.6c-1.4,0-2-0.8-2-2.4c0-1.1,0.3-2.4,0.9-3.9c0-0.2,0-0.3,0-0.5s0-0.4,0-0.5
		c0-1.7,0.8-2.6,2.4-2.8c0.4-0.5,0.8-0.7,1.2-0.7c0.6,0,0.8,0.2,0.8,0.5C77.4,18.7,77.3,18.8,77.2,18.9z M73.8,24.9L73.8,24.9
		c-0.2,0.7-0.2,1.3-0.2,1.7c0,1.1,0.4,1.6,1.2,1.6c0.9,0,1.7-0.5,2.4-1.5C75.7,26.5,74.6,25.9,73.8,24.9z M76.7,19.5
		c-0.9,1-1.7,2.3-2.3,3.7c0.4,1.6,1.5,2.6,3.2,2.8c0.7-1.4,1.1-2.6,1.1-3.8c0-0.7-0.2-1.4-0.5-1.9C77.9,19.8,77.3,19.5,76.7,19.5z"
		/>
	<path class="st0" d="M96,24.7c-2.3,2.5-4.3,3.6-6,3.5c-0.5-0.1-1-0.4-1.5-1c-0.5-0.7-0.7-1.5-0.8-2.5c-0.4,0.5-0.8,1-1.2,1.4
		s-0.8,0.8-1.2,1.2c-0.8,0.6-1.5,1-2,1c-0.7,0-1.1-0.5-1.1-1.4c0-0.8,0.3-1.6,0.8-2.5c1.3-2,2.8-3.4,4.4-4.1
		c0.7-0.3,1.4-0.5,1.9-0.5c0.2,0,0.3,0,0.5,0.1s0.4,0.1,0.5,0.2s0.3,0.2,0.4,0.3c0.1,0.1,0.2,0.3,0.2,0.4s0,0.1-0.1,0.2
		s-0.1,0.1-0.2,0.1s-0.2,0.1-0.3,0.1s0,0,0,0c-0.7,1.3-1.1,2.6-1.1,3.8c0,1.5,0.6,2.3,1.8,2.3c1.2,0,2.8-1,4.6-3
		C95.7,24,95.9,24,96,24s0.1,0.1,0.1,0.2C96.2,24.5,96.1,24.6,96,24.7z M88.5,20.8c-1.7,0-3.1,1.1-4.3,3.5c-0.3,0.6-0.5,1.2-0.5,1.7
		s0.2,0.8,0.6,0.8s0.8-0.2,1.4-0.7c1-0.9,1.7-1.8,2-2.7C87.9,22.4,88.2,21.5,88.5,20.8z M93.8,14.7c0.1,0.5-0.4,1-1.3,1.5
		c-0.9,0.5-1.7,0.9-2.4,1.4c-0.5,0.3-0.7,0.6-0.7,0.8l0,0c0-0.1,0,0-0.1,0.3c-0.1,0.2-0.2,0.2-0.4,0.1c-0.1-0.1-0.1-0.2-0.1-0.3
		c0-0.3,0.2-0.7,0.7-1.1c0.1-0.1,0.3-0.3,0.5-0.4s0.5-0.4,0.8-0.6s0.7-0.5,1.3-1c0.3-0.3,0.5-0.5,0.5-0.7c0-0.1-0.2-0.2-0.5-0.1
		c-0.3,0.1-0.9,0.2-1.6,0.6c-0.6,0.3-1,0.6-1.1,0.8c-0.1,0.1-0.3,0.2-0.5,0.2c-0.3,0-0.5-0.1-0.5-0.4c0-0.1,0-0.2,0.1-0.3
		c0.3-0.3,0.7-0.6,1.4-1c0.9-0.5,1.7-0.7,2.5-0.7c0.3,0,0.7,0.1,0.9,0.2C93.6,14.1,93.8,14.3,93.8,14.7z"/>
	<path class="st0" d="M120.8,24.6c-2.2,2.4-4.1,3.6-5.6,3.6c-1.6,0-2.4-1.5-2.2-4.6c-0.1,0.1-0.3,0.3-0.5,0.6s-0.5,0.6-0.8,1
		l-1.8,2.7c-0.4,0.4-0.7,0.6-1,0.5s-0.4-0.3-0.4-0.6l0.1-1c0-0.3,0.1-0.6,0.1-0.9s0-0.5,0.1-0.8c0.1-1.6-0.1-2.5-0.6-2.5
		c-0.4,0-1,0.4-1.8,1.3c-0.5,0.5-1.1,1.4-1.8,2.6c-0.6,1.1-1,1.6-1.1,1.7s-0.2,0.1-0.4,0.1c-0.3,0-0.4-0.2-0.4-0.6
		c0-0.1,0-0.2,0-0.3c0.1-0.3,0.3-0.7,0.6-1.3s0.5-1.2,0.9-2c0.8-1.9,1.3-3.1,1.3-3.5c0.1-0.1,0.4-0.3,1-0.6c0.6-0.3,1-0.2,1,0.2
		l-1,2.9c0.2-0.2,0.3-0.3,0.6-0.5s0.5-0.4,0.8-0.7c0.3-0.2,0.7-0.3,1-0.3c0.9,0,1.5,0.6,1.6,1.7c0,0,0,0.3,0,0.8s0,1.3-0.1,2.3
		c0.6-1,1.9-2.7,3.7-5.1c0.4-0.5,0.8-0.7,1.2-0.7c0.2,0,0.3,0.1,0.3,0.4c0,0.1,0,0.1,0,0.2s0,0.1,0,0.2c-0.5,1.7-0.7,3-0.7,4
		c0,1.3,0.4,1.9,1.3,1.9c0.7,0,1.5-0.4,2.4-1.1c0.2-0.1,0.4-0.4,0.7-0.7s0.7-0.7,1.2-1.2c0.1-0.1,0.3-0.2,0.4-0.2s0.1,0.1,0.2,0.2
		C120.9,24.4,120.9,24.5,120.8,24.6z"/>
	<path class="st0" d="M133.3,24.7c-2.3,2.5-4.3,3.6-6,3.5c-0.5-0.1-1-0.4-1.5-1c-0.5-0.7-0.7-1.5-0.8-2.5c-0.4,0.5-0.8,1-1.2,1.4
		s-0.8,0.8-1.2,1.2c-0.8,0.6-1.5,1-2,1c-0.7,0-1.1-0.5-1.1-1.4c0-0.8,0.3-1.6,0.8-2.5c1.3-2,2.8-3.4,4.4-4.1
		c0.7-0.3,1.4-0.5,1.9-0.5c0.2,0,0.3,0,0.5,0.1s0.4,0.1,0.5,0.2s0.3,0.2,0.4,0.3c0.1,0.1,0.2,0.3,0.2,0.4s0,0.1-0.1,0.2
		s-0.1,0.1-0.2,0.1c-0.1,0-0.2,0.1-0.3,0.1s0,0,0,0c-0.7,1.3-1.1,2.6-1.1,3.8c0,1.5,0.6,2.3,1.8,2.3s2.8-1,4.6-3
		c0.1-0.2,0.3-0.3,0.4-0.3c0.1,0,0.1,0.1,0.1,0.2C133.5,24.5,133.4,24.6,133.3,24.7z M125.9,20.8c-1.7,0-3.1,1.1-4.3,3.5
		c-0.3,0.6-0.5,1.2-0.5,1.7s0.2,0.8,0.6,0.8s0.8-0.2,1.4-0.7c1-0.9,1.7-1.8,2-2.7C125.2,22.4,125.5,21.5,125.9,20.8z M131,16.3
		c-0.7,1.4-1.5,2.1-2.5,2c-0.4,0-0.9-0.2-1.5-0.5c-0.7-0.3-1.2-0.5-1.6-0.5c-0.5,0-1,0.2-1.3,0.9c0,0.1-0.2,0.1-0.4,0.1
		c-0.2,0-0.3-0.1-0.2-0.1c0.8-1.4,1.6-2,2.5-1.9c0.2,0,0.4,0.1,0.7,0.1s0.5,0.2,0.9,0.3c0.7,0.3,1.2,0.4,1.5,0.4
		c0.6,0.1,1.1-0.2,1.4-0.9c0-0.1,0.1-0.1,0.3-0.1C131,16.2,131.1,16.2,131,16.3z"/>
	<path class="st0" d="M133,27.9c-0.1,0.2-0.2,0.3-0.4,0.3s-0.4-0.1-0.5-0.3c-0.1-0.2-0.2-0.4-0.2-0.5c0.1-0.3,0.3-0.7,0.6-1.3
		c0.3-0.6,0.5-1.2,0.9-2c0.8-1.9,1.3-3.1,1.3-3.5c0.1-0.1,0.4-0.3,1-0.6c0.6-0.3,1-0.2,1,0.2c-0.4,1.3-1.3,3.3-2.6,6.1
		c0.7-0.8,1.5-1.7,2.4-2.6s1.8-1.9,2.7-2.9c0.4-0.5,0.8-0.7,1.1-0.7c0.1,0,0.2,0.1,0.2,0.3c0,0.1,0,0.3-0.1,0.5
		c-0.7,2.3-1,3.9-1,4.8c0,1.1,0.4,1.6,1.1,1.6s1.5-0.4,2.4-1.1c0.2-0.1,0.4-0.4,0.7-0.7c0.3-0.3,0.7-0.7,1.2-1.2
		c0.1-0.1,0.3-0.2,0.4-0.2c0.1,0,0.1,0.1,0.2,0.2c0,0.1,0,0.2-0.1,0.3c-2,2.2-3.8,3.4-5.4,3.4c-1.4,0-2.1-1.1-2.1-3.3
		c0-0.5,0-1,0.1-1.6c-0.3,0.2-0.6,0.5-0.9,0.9s-0.8,0.8-1.3,1.3c-0.3,0.2-0.5,0.5-0.7,0.7s-0.4,0.5-0.7,0.8
		c-0.2,0.2-0.3,0.4-0.5,0.6S133.1,27.7,133,27.9z"/>
	<path class="st0" d="M156.7,20c0,0.2,0,0.4,0.1,0.7c0.1,0.3,0.1,0.5,0.2,0.7c0.3-0.5,0.7-0.9,1-1.3s0.7-0.9,1.1-1.3
		c1-1,1.9-1.5,2.7-1.5c0.4,0,0.8,0.1,1.1,0.4s0.4,0.6,0.4,1c0,0.2-0.1,0.5-0.2,0.7s-0.3,0.4-0.4,0.4c-0.2,0-0.3-0.2-0.4-0.5
		c-0.1-0.6-0.4-0.9-1-0.9c-0.8,0-1.8,0.6-2.8,1.8c-0.3,0.3-0.5,0.6-0.7,0.9s-0.4,0.6-0.6,0.8c0.4,1.3,1,2.5,1.9,3.5
		c0.9,1.1,2,1.6,3.1,1.6c0.6,0,1.2-0.2,1.7-0.5c0.9-0.4,1.8-1.1,2.7-2.2c0.2-0.2,0.4-0.3,0.5-0.3s0.1,0.1,0.1,0.2s0,0.2-0.1,0.4
		c-0.8,0.8-1.8,1.6-3,2.3c-1.4,0.8-2.5,1.1-3.4,1.1s-1.8-0.5-2.6-1.4c-0.8-0.8-1.4-1.8-1.9-3c-0.3,0.5-0.7,1.2-1,2s-0.7,1.7-1.1,2.8
		c-0.3,0.2-0.5,0.2-0.8,0.2c-0.6,0-0.9-0.4-0.9-1.3c0-0.3,0-0.5,0.1-0.7c0.3-1,0.7-2.1,1.2-3.4s1.1-2.8,1.8-4.5
		c1.8-4.3,3.3-7.3,4.5-9.1c1-1.5,2.1-2.2,3.2-2.2c0.9,0,1.3,0.5,1.3,1.5c0,0.4-0.1,0.9-0.3,1.5C163.3,13.3,160.8,16.4,156.7,20z
		 M155.7,23.2c-0.2-0.4-0.3-0.8-0.4-1.2c-0.9,2-1.5,3.7-1.6,5C154.4,25.6,155,24.3,155.7,23.2z M163.2,10.5c0.2-0.6,0.4-1,0.4-1.5
		s-0.2-0.7-0.5-0.7c-0.5,0-1.2,0.6-1.9,1.8c-0.9,1.5-1.7,3.1-2.5,4.7s-1.5,3.2-2.2,4.9c0.6-0.6,1.3-1.3,1.9-2s1.2-1.5,1.9-2.3
		c0.7-0.9,1.3-1.8,1.8-2.6S162.9,11.1,163.2,10.5z"/>
	<path class="st0" d="M179.9,24.7c-2.1,2.2-3.9,3.3-5.2,3.3c-0.6,0-1-0.5-1.3-1.4c-0.1-0.4-0.2-0.7-0.3-1.1s-0.2-0.7-0.3-1.1
		c-0.2-0.5-0.5-0.8-0.9-0.8s-0.8,0.2-1.2,0.6c-0.6,0.4-1.2,1.2-2,2.2c-0.2,0.2-0.3,0.5-0.5,0.7s-0.3,0.5-0.5,0.7
		c-0.4,0.2-0.7,0.4-0.9,0.4c-0.5,0-0.7-0.4-0.7-1.1c0-0.3,0-0.6,0.1-1c0.3-0.9,0.7-2,1.2-3.2s1.1-2.7,1.8-4.3c1.8-4,3.3-6.9,4.5-8.8
		c1-1.5,2.1-2.2,3.2-2.2c0.9,0,1.3,0.5,1.3,1.5c0,0.4-0.1,0.9-0.3,1.5c-0.9,2.9-3.6,6.2-8,10c-0.9,1.7-1.7,3.6-2.2,5.7l0.6-0.6
		c0.2-0.2,0.5-0.5,0.9-0.9s0.8-0.8,1.3-1.3c1.2-1.1,2.3-1.7,3.1-1.7c0.5,0,0.8,0.4,0.9,1.3c0,0.4,0.1,0.8,0.1,1.2s0.1,0.8,0.1,1.2
		c0.1,0.8,0.5,1.3,1,1.3s1.2-0.3,2.1-0.9c0.6-0.4,1.2-0.9,1.7-1.5c0.2-0.2,0.3-0.3,0.5-0.3c0.1,0,0.2,0.1,0.2,0.2
		C180.1,24.4,180,24.5,179.9,24.7z M176.9,10.5c0.2-0.6,0.4-1,0.4-1.5s-0.2-0.7-0.5-0.7c-0.5,0-1.2,0.6-1.9,1.8
		c-0.9,1.5-1.7,3.1-2.5,4.7s-1.5,3.2-2.2,4.9c0.6-0.6,1.3-1.3,1.9-2s1.2-1.5,1.9-2.3c0.7-0.9,1.3-1.8,1.8-2.6S176.7,11.1,176.9,10.5
		z"/>
	<path class="st0" d="M193.1,24.7c-2.3,2.5-4.3,3.6-6,3.5c-0.5-0.1-1-0.4-1.5-1c-0.5-0.7-0.7-1.5-0.8-2.5c-0.4,0.5-0.8,1-1.2,1.4
		s-0.8,0.8-1.2,1.2c-0.8,0.6-1.5,1-2,1c-0.7,0-1.1-0.5-1.1-1.4c0-0.8,0.3-1.6,0.8-2.5c1.3-2,2.8-3.4,4.4-4.1
		c0.7-0.3,1.4-0.5,1.9-0.5c0.2,0,0.3,0,0.5,0.1s0.4,0.1,0.5,0.2s0.3,0.2,0.4,0.3s0.2,0.3,0.2,0.4s0,0.1-0.1,0.2s-0.1,0.1-0.2,0.1
		s-0.2,0.1-0.3,0.1s-0.1,0.1-0.1,0.1c-0.7,1.3-1.1,2.6-1.1,3.8c0,1.5,0.6,2.3,1.8,2.3s2.8-1,4.6-3c0.1-0.2,0.3-0.3,0.4-0.3
		c0.1,0,0.1,0.1,0.1,0.2C193.3,24.5,193.2,24.6,193.1,24.7z M185.6,20.8c-1.7,0-3.1,1.1-4.3,3.5c-0.3,0.6-0.5,1.2-0.5,1.7
		s0.2,0.8,0.6,0.8c0.4,0,0.8-0.2,1.4-0.7c1-0.9,1.7-1.8,2-2.7C185,22.4,185.2,21.5,185.6,20.8z M191.3,15.8
		c-0.1,0.2-1.1,0.8-2.8,1.6s-2.7,1.2-2.8,1.1s-0.2-0.2-0.1-0.4c0.5-0.4,1.1-0.8,1.7-1.3s1.3-0.9,2-1.5c0.4-0.3,0.8-0.5,1.2-0.5
		c0.2,0,0.4,0,0.5,0.1C191.4,15.2,191.5,15.5,191.3,15.8z"/>
	<path class="st0" d="M192.9,19.9c0.1,0,0.3,0,0.4,0s0.3,0,0.5,0c0.1,0,0.2,0,0.4,0s0.3,0,0.5,0c0.1-0.3,0.3-0.6,0.6-1.1
		s0.6-1.1,1-1.8c0.2-0.4,0.5-0.8,0.8-1.3c0.3-0.5,0.6-1,1-1.5c0.4-0.4,0.9-0.6,1.6-0.6c0.6,0,0.9,0.2,0.9,0.5c0,0.1,0,0.1-0.1,0.2
		c-0.4,0.6-0.9,1.3-1.6,2.3c-0.7,1-1.4,2.1-2.2,3.4h4.7c0.3,0.1,0.4,0.2,0.4,0.4c0,0.3-0.4,0.5-1.1,0.6c-0.1,0-0.6,0-1.3,0
		s-1.9,0-3.3,0c-1,1.8-1.5,3.3-1.5,4.5c0,1.3,0.6,2,1.7,2c0.6,0,1.2-0.2,1.8-0.5c0.4-0.3,0.9-0.6,1.4-1s1-0.9,1.5-1.4
		c0.2-0.2,0.4-0.3,0.5-0.3s0.1,0.1,0.1,0.2s0,0.2-0.1,0.4c-2.3,2.4-4.2,3.5-5.8,3.5c-1.3,0-2-0.7-2.3-2c0-0.2-0.1-0.4-0.1-0.6
		s0-0.4,0-0.6c0-1.2,0.3-2.6,1-4.1c-0.4,0-0.8,0-0.9,0s-0.2,0-0.2,0c-0.5-0.1-0.7-0.3-0.7-0.6C192.2,20,192.4,19.9,192.9,19.9z"/>
	<path class="st0" d="M222.5,24.7c-0.8,0.9-1.7,1.4-2.8,1.4c-0.8,0-1.4-0.2-2.1-0.7s-1-1-1.3-1.7c-0.7,1.5-1.5,2.6-2.5,3.6
		c-1,0.9-1.8,1.3-2.5,1.1c-0.9-0.2-1.4-0.9-1.4-2.2c0-0.8,0.2-1.6,0.6-2.5l-0.3,0.3c-0.2,0.2-0.6,0.6-1.1,1.1
		c-0.1,0.1-0.2,0.2-0.3,0.2s-0.2-0.1-0.2-0.2c0-0.2,0.2-0.3,0.3-0.5c1.2-1.1,2.3-2.3,3.3-3.6c0.2-0.3,0.5-0.4,0.8-0.4
		c0.4,0,0.6,0.2,0.6,0.5c0,0.1-0.3,0.7-0.9,1.6c-0.3,0.6-0.6,1-0.8,1.3s-0.3,0.5-0.3,0.6c-0.3,0.7-0.5,1.4-0.5,2
		c0,0.5,0.1,0.8,0.4,0.9c0.1,0,0.2,0,0.3,0c0.7,0,1.4-0.4,2.2-1.3c0.4-0.4,0.8-0.9,1.1-1.5s0.6-1.1,0.9-1.7
		c-0.1-1.4,0.1-2.6,0.5-3.4c0.4-0.7,0.8-1,1.3-1s0.8,0.3,0.8,1c0,0.1,0,0.2,0,0.3s0,0.2,0,0.3c-0.2,1-0.8,1.9-1.7,2.6
		c0,0.7,0.3,1.4,0.8,1.9c0.6,0.6,1.2,0.9,2,0.9c0.9,0,1.7-0.4,2.5-1.3c0.2-0.2,0.3-0.3,0.4-0.1C222.7,24.3,222.7,24.5,222.5,24.7z"
		/>
	<path class="st0" d="M226.9,18.9l-0.1,0.1c0.7,0.2,1.3,0.7,1.8,1.3s0.7,1.3,0.7,2c0,1.3-0.3,2.5-1,3.6l-0.1,0.1
		c1.9-0.1,3.4-0.7,4.6-1.9c0.1-0.1,0.2-0.2,0.3-0.2s0.2,0.1,0.2,0.2c0,0.2-0.1,0.4-0.3,0.5c-1.5,1.3-3.2,1.9-5.2,1.9
		c-0.5,0.7-1.2,1.2-1.9,1.7s-1.4,0.6-2.1,0.6c-1.4,0-2-0.8-2-2.4c0-1.1,0.3-2.4,0.9-3.9c0-0.2,0-0.3,0-0.5s0-0.4,0-0.5
		c0-1.7,0.8-2.6,2.4-2.8c0.4-0.5,0.8-0.7,1.2-0.7c0.6,0,0.8,0.2,0.8,0.5C227,18.7,227,18.8,226.9,18.9z M223.5,24.9L223.5,24.9
		c-0.2,0.7-0.2,1.3-0.2,1.7c0,1.1,0.4,1.6,1.2,1.6c0.9,0,1.7-0.5,2.4-1.5C225.4,26.5,224.3,25.9,223.5,24.9z M225.4,31
		c0,0.7-0.3,1-1,1s-1-0.3-1-1s0.3-1,1-1S225.4,30.3,225.4,31z M226.3,19.5c-0.9,1-1.7,2.3-2.3,3.7c0.4,1.6,1.5,2.6,3.2,2.8
		c0.7-1.4,1.1-2.6,1.1-3.8c0-0.7-0.2-1.4-0.5-1.9S227,19.5,226.3,19.5z"/>
	<path class="st0" d="M232.7,27.9c-0.1,0.2-0.2,0.3-0.4,0.3s-0.4-0.1-0.5-0.3s-0.2-0.4-0.2-0.5c0.1-0.3,0.3-0.7,0.6-1.3
		s0.5-1.2,0.9-2c0.8-1.9,1.3-3.1,1.3-3.5c0.1-0.1,0.4-0.3,1-0.6c0.6-0.3,1-0.2,1,0.2c-0.4,1.3-1.3,3.3-2.6,6.1
		c0.7-0.8,1.5-1.7,2.4-2.6s1.8-1.9,2.7-2.9c0.4-0.5,0.8-0.7,1.1-0.7c0.1,0,0.2,0.1,0.2,0.3c0,0.1,0,0.3-0.1,0.5
		c-0.7,2.3-1,3.9-1,4.8c0,1.1,0.4,1.6,1.1,1.6c0.7,0,1.5-0.4,2.4-1.1c0.2-0.1,0.4-0.4,0.7-0.7s0.7-0.7,1.2-1.2
		c0.1-0.1,0.3-0.2,0.4-0.2c0.1,0,0.1,0.1,0.2,0.2c0,0.1,0,0.2-0.1,0.3c-2,2.2-3.8,3.4-5.4,3.4c-1.4,0-2.1-1.1-2.1-3.3
		c0-0.5,0-1,0.1-1.6c-0.3,0.2-0.6,0.5-0.9,0.9s-0.8,0.8-1.3,1.3c-0.3,0.2-0.5,0.5-0.7,0.7s-0.4,0.5-0.7,0.8
		c-0.2,0.2-0.3,0.4-0.5,0.6S232.8,27.7,232.7,27.9z"/>
	<path class="st0" d="M255.4,21.2c-0.1,0.1-0.2,0.1-0.2,0.1c-0.1,0-0.2-0.1-0.2-0.2c0,0,0-0.1,0.1-0.2c0.3-0.4,0.5-0.7,0.5-1
		c0-0.6-0.7-1-2.1-1c-1.8,0-3.6,0.9-5.5,2.7c-1.7,1.6-2.5,2.9-2.5,4c0,0.4,0.2,0.6,0.6,0.6c0.3,0,0.6-0.1,1.1-0.3
		c1.2-0.5,2.1-1.2,2.9-2.2c0.3-0.4,0.6-1,0.8-1.9c0.2-0.6,0.3-1.2,0.3-1.7c0.1-0.4,0.4-0.6,1.1-0.6c0.6,0,0.9,0.2,0.9,0.5
		c0,0.5-0.2,1.4-0.4,2.6s-0.6,2.7-1,4.6c0.8-0.1,1.4-0.2,2-0.1c1.5,0.2,2.2,0.7,2.2,1.5c0,0.5-0.3,1-0.9,1.6
		c-0.1,0.1-0.2,0.1-0.2,0.1c-0.1,0-0.2-0.1-0.2-0.2s0-0.2,0.1-0.2c0.4-0.4,0.6-0.7,0.6-1.1c0-0.7-0.7-1-2-1c-0.2,0-0.5,0-0.8,0.1
		s-0.7,0.1-1.1,0.1c-1.2,4.5-3.1,8.1-5.8,10.8c-1.5,1.5-3.2,2.8-5.1,3.7c-2.1,1-4.1,1.6-6.1,1.6c-1.5,0-2.7-0.4-3.6-1.1
		s-1.3-1.7-1.3-2.9c0-1.4,0.7-2.8,2.1-4.3c1.5-1.6,3.8-3.1,6.7-4.4s6.8-2.6,11.5-3.8c0.1-0.4,0.2-0.9,0.3-1.5s0.3-1.4,0.5-2.2
		l-0.7,0.7c-0.5,0.5-0.9,0.9-1.3,1.3s-0.6,0.6-0.9,0.8c-0.9,0.7-1.8,1.1-2.5,1.1c-0.9,0-1.3-0.6-1.3-1.7c0-1.7,1.2-3.5,3.7-5.4
		c2-1.6,4.1-2.4,6.1-2.4c1.6,0,2.4,0.5,2.4,1.4C256.1,20.1,255.9,20.6,255.4,21.2z M249.6,28.5c-2.2,0.6-3.8,1.1-5,1.4
		c-1.2,0.4-2.3,0.8-3.3,1.1s-2,0.8-2.8,1.2c-1.2,0.6-2.3,1.2-3.2,1.8s-1.7,1.4-2.4,2.1c-1.1,1.3-1.7,2.6-1.7,3.9
		c0,1,0.4,1.8,1.1,2.4s1.8,0.9,3,0.9c2.7,0,5.3-1.1,7.9-3.4C246.4,37.2,248.5,33.4,249.6,28.5z"/>
	<path class="st0" d="M265.4,19.9c0.1,0,0.3,0,0.4,0s0.3,0,0.5,0c0.1,0,0.2,0,0.4,0c0.2,0,0.3,0,0.5,0c0.1-0.3,0.3-0.6,0.6-1.1
		c0.3-0.5,0.6-1.1,1-1.8c0.2-0.4,0.5-0.8,0.8-1.3c0.3-0.5,0.6-1,1-1.5c0.4-0.4,0.9-0.6,1.6-0.6c0.6,0,0.9,0.2,0.9,0.5
		c0,0.1,0,0.1-0.1,0.2c-0.4,0.6-0.9,1.3-1.6,2.3s-1.4,2.1-2.2,3.4h4.7c0.3,0.1,0.4,0.2,0.4,0.4c0,0.3-0.4,0.5-1.1,0.6
		c-0.1,0-0.6,0-1.3,0c-0.7,0-1.9,0-3.3,0c-1,1.8-1.5,3.3-1.5,4.5c0,1.3,0.6,2,1.7,2c0.6,0,1.2-0.2,1.8-0.5c0.4-0.3,0.9-0.6,1.4-1
		s1-0.9,1.5-1.4c0.2-0.2,0.4-0.3,0.5-0.3s0.1,0.1,0.1,0.2s0,0.2-0.1,0.4c-2.3,2.4-4.2,3.5-5.8,3.5c-1.3,0-2-0.7-2.3-2
		c0-0.2-0.1-0.4-0.1-0.6s0-0.4,0-0.6c0-1.2,0.3-2.6,1-4.1c-0.4,0-0.8,0-0.9,0s-0.2,0-0.2,0c-0.5-0.1-0.7-0.3-0.7-0.6
		C264.7,20,264.9,19.9,265.4,19.9z"/>
	<path class="st0" d="M282,24.7c-2.3,2.4-4.2,3.6-5.8,3.5c-1.8,0-2.7-1.3-2.5-3.8c0.1-1.2,0.7-2.6,1.8-4.2c0.2-0.3,0.7-0.5,1.3-0.5
		c0.5,0,0.7,0.1,0.7,0.4c0,0,0,0.1-0.1,0.2c-0.3,0.6-0.6,1.1-0.8,1.4c-0.2,0.3-0.3,0.5-0.4,0.6c-0.2,0.4-0.4,0.8-0.5,1.1
		s-0.2,0.6-0.3,0.9c-0.1,0.4-0.1,0.7-0.1,1c0,1.3,0.5,2,1.4,2c1.3,0,2.9-1,4.8-3.1c0.2-0.2,0.4-0.3,0.5-0.3s0.1,0.1,0.1,0.2
		C282.2,24.4,282.1,24.5,282,24.7z M280.7,14.7c0,1-0.4,1.5-1.3,1.5c-0.3,0-0.6-0.1-0.8-0.4c-0.2-0.3-0.3-0.5-0.3-0.8
		c0-0.4,0.2-0.7,0.5-1c0.3-0.2,0.6-0.3,0.9-0.3C280.4,13.7,280.7,14,280.7,14.7z"/>
	<path class="st0" d="M281.6,27.9c-0.1,0.2-0.2,0.3-0.4,0.3c-0.2,0-0.4-0.1-0.5-0.3s-0.2-0.4-0.2-0.5c0.1-0.3,0.3-0.7,0.6-1.3
		c0.3-0.6,0.5-1.2,0.9-2c0.8-1.9,1.3-3.1,1.3-3.5c0.1-0.1,0.4-0.3,1-0.6c0.6-0.3,1-0.2,1,0.2c-0.4,1.3-1.3,3.3-2.6,6.1
		c0.7-0.8,1.5-1.7,2.4-2.6s1.8-1.9,2.7-2.9c0.4-0.5,0.8-0.7,1.1-0.7c0.1,0,0.2,0.1,0.2,0.3c0,0.1,0,0.3-0.1,0.5
		c-0.7,2.3-1,3.9-1,4.8c0,1.1,0.4,1.6,1.1,1.6s1.5-0.4,2.4-1.1c0.2-0.1,0.4-0.4,0.7-0.7s0.7-0.7,1.2-1.2c0.1-0.1,0.3-0.2,0.4-0.2
		s0.1,0.1,0.2,0.2c0,0.1,0,0.2-0.1,0.3c-2,2.2-3.8,3.4-5.4,3.4c-1.4,0-2.1-1.1-2.1-3.3c0-0.5,0-1,0.1-1.6c-0.3,0.2-0.6,0.5-0.9,0.9
		s-0.8,0.8-1.3,1.3c-0.3,0.2-0.5,0.5-0.7,0.7s-0.4,0.5-0.7,0.8c-0.2,0.2-0.3,0.4-0.5,0.6C282.2,27.5,281.8,27.7,281.6,27.9z"/>
	<path class="st0" d="M306.5,24.7c-2.1,2.2-3.9,3.3-5.2,3.3c-0.6,0-1-0.5-1.3-1.4c-0.1-0.4-0.2-0.7-0.3-1.1s-0.2-0.7-0.3-1.1
		c-0.2-0.5-0.5-0.8-0.9-0.8s-0.8,0.2-1.2,0.6c-0.6,0.4-1.2,1.2-2,2.2c-0.2,0.2-0.3,0.5-0.5,0.7s-0.3,0.5-0.5,0.7
		c-0.4,0.2-0.7,0.4-0.9,0.4c-0.5,0-0.7-0.4-0.7-1.1c0-0.3,0-0.6,0.1-1c0.3-0.9,0.7-2,1.2-3.2s1.1-2.7,1.8-4.3c1.8-4,3.3-6.9,4.5-8.8
		c1-1.5,2.1-2.2,3.2-2.2c0.9,0,1.3,0.5,1.3,1.5c0,0.4-0.1,0.9-0.3,1.5c-0.9,2.9-3.6,6.2-8,10c-0.9,1.7-1.7,3.6-2.2,5.7l0.6-0.6
		c0.2-0.2,0.5-0.5,0.9-0.9s0.8-0.8,1.3-1.3c1.2-1.1,2.3-1.7,3.1-1.7c0.5,0,0.8,0.4,0.9,1.3c0,0.4,0.1,0.8,0.1,1.2s0.1,0.8,0.1,1.2
		c0.1,0.8,0.5,1.3,1,1.3s1.2-0.3,2.1-0.9c0.6-0.4,1.2-0.9,1.7-1.5c0.2-0.2,0.3-0.3,0.5-0.3c0.1,0,0.2,0.1,0.2,0.2
		C306.6,24.4,306.6,24.5,306.5,24.7z M303.5,10.5c0.2-0.6,0.4-1,0.4-1.5s-0.2-0.7-0.5-0.7c-0.5,0-1.2,0.6-1.9,1.8
		c-0.9,1.5-1.7,3.1-2.5,4.7s-1.5,3.2-2.2,4.9c0.6-0.6,1.3-1.3,1.9-2s1.2-1.5,1.9-2.3c0.7-0.9,1.3-1.8,1.8-2.6S303.3,11.1,303.5,10.5
		z"/>
	<path class="st0" d="M315.1,19.9c0.1,0,0.3,0,0.4,0s0.3,0,0.5,0c0.1,0,0.2,0,0.4,0s0.3,0,0.5,0c0.1-0.3,0.3-0.6,0.6-1.1
		s0.6-1.1,1-1.8c0.2-0.4,0.5-0.8,0.8-1.3c0.3-0.5,0.6-1,1-1.5c0.4-0.4,0.9-0.6,1.6-0.6c0.6,0,0.9,0.2,0.9,0.5c0,0.1,0,0.1-0.1,0.2
		c-0.4,0.6-0.9,1.3-1.6,2.3s-1.4,2.1-2.2,3.4h4.7c0.3,0.1,0.4,0.2,0.4,0.4c0,0.3-0.4,0.5-1.1,0.6c-0.1,0-0.6,0-1.3,0s-1.9,0-3.3,0
		c-1,1.8-1.5,3.3-1.5,4.5c0,1.3,0.6,2,1.7,2c0.6,0,1.2-0.2,1.8-0.5c0.4-0.3,0.9-0.6,1.4-1s1-0.9,1.5-1.4c0.2-0.2,0.4-0.3,0.5-0.3
		s0.1,0.1,0.1,0.2s0,0.2-0.1,0.4c-2.3,2.4-4.2,3.5-5.8,3.5c-1.3,0-2-0.7-2.3-2c0-0.2-0.1-0.4-0.1-0.6s0-0.4,0-0.6
		c0-1.2,0.3-2.6,1-4.1c-0.4,0-0.8,0-0.9,0s-0.2,0-0.2,0c-0.5-0.1-0.7-0.3-0.7-0.6C314.4,20,314.6,19.9,315.1,19.9z"/>
	<path class="st0" d="M333.6,24.7c-0.7,0.9-1.9,1.7-3.4,2.5c-1.7,0.9-3.2,1.3-4.5,1.3c-1.9,0-2.8-1-2.8-3.1c0-0.7,0.2-1.6,0.7-2.6
		c0.5-1.1,1.1-2,1.9-2.7c0.9-0.8,1.7-1.2,2.4-1.2c1,0,1.5,0.5,1.5,1.5c0,0.6-0.3,1.2-0.8,1.9c-0.9,1.1-2.3,1.9-4,2.4
		c-0.1,0.3-0.1,0.7-0.1,1.1c0,1.4,0.6,2,1.9,2c1,0,2.2-0.4,3.7-1.2c0.7-0.4,1.3-0.8,1.8-1.1s0.9-0.7,1.3-1.1s0.6-0.4,0.6-0.1
		C333.8,24.4,333.7,24.6,333.6,24.7z M332.2,18.2c0,0.1,0,0.2-0.1,0.2s-0.2,0-0.4,0s-0.2-0.1-0.3-0.2l-1.7-2.6l-4.8,2.6
		c-0.2,0.1-0.4,0.2-0.6,0.2s-0.4,0-0.4-0.1v-0.1l5.5-3.9c0.9-0.1,1.4-0.1,1.4,0L332.2,18.2z M328.1,21.9c0.4-0.6,0.6-1.2,0.6-1.7
		c0-0.4-0.1-0.5-0.4-0.5c-0.4,0-1,0.5-1.7,1.5s-1.3,2-1.7,3C326.5,23.7,327.5,22.9,328.1,21.9z M338.1,12.9
		c-0.1,0.2-1.1,0.8-2.8,1.6c-1.7,0.8-2.6,1.2-2.8,1.1c-0.1-0.1-0.2-0.2-0.1-0.4c0.5-0.4,1.1-0.8,1.7-1.3s1.3-0.9,2-1.5
		c0.4-0.3,0.8-0.5,1.2-0.5c0.2,0,0.4,0,0.5,0.1C338.2,12.3,338.3,12.6,338.1,12.9z"/>
</g>
</svg>
